<?xml version="1.0" encoding="UTF-8"?>
<svg width="62px" height="61px" viewBox="0 0 62 61" version="1.1" xmlns="http://www.w3.org/2000/svg" xmlns:xlink="http://www.w3.org/1999/xlink">
    <!-- Generator: Sketch 55.2 (78181) - https://sketchapp.com -->
    <title>noun_Brain_2444330</title>
    <desc>Created with Sketch.</desc>
    <g id="Page-1" stroke="none" stroke-width="1" fill="none" fill-rule="evenodd">
        <g id="noun_Brain_2444330" fill="#000000" fill-rule="nonzero">
            <path d="M15.521,30 C14.536,31.475 14,33.223 14,35 C14,39.004 16.71,42.554 20.519,43.648 C21.587,46.273 24.124,48 27,48 C28.437,48 29.829,47.557 31,46.738 C32.171,47.557 33.563,48 35,48 C37.876,48 40.413,46.273 41.48,43.648 C45.29,42.554 48,39.004 48,35 C48,33.223 47.464,31.475 46.479,30 C47.464,28.525 48,26.777 48,25 C48,21.51 46.02,18.392 42.906,16.896 C42.372,13.544 39.45,11 36,11 C34.097,11 32.305,11.769 31,13.103 C29.695,11.769 27.903,11 26,11 C22.55,11 19.628,13.544 19.094,16.896 C15.98,18.392 14,21.51 14,25 C14,26.777 14.536,28.525 15.521,30 Z M40.506,41.833 C40.156,41.91 39.875,42.167 39.767,42.508 C39.107,44.597 37.191,46 35,46 C33.911,46 32.867,45.624 32,44.966 L32,41.31 L32.5,41.31 C33.437,41.31 34.317,40.947 34.977,40.287 C35.637,39.627 36,38.748 36,37.81 C36,35.88 34.43,34.31 32.5,34.31 L32,34.31 L32,31 L35.76,31 C36.312,31 36.76,30.552 36.76,30 L36.76,28.5 C36.76,27.673 37.433,27 38.26,27 C38.664,27 39.041,27.155 39.323,27.437 C39.605,27.719 39.76,28.096 39.76,28.5 L39.76,30 C39.76,30.552 40.208,31 40.76,31 L44.712,31 C45.542,32.18 46,33.547 46,35 C46,38.26 43.689,41.134 40.506,41.833 Z M36,13 C38.612,13 40.8,15.042 40.981,17.648 C41.007,18.03 41.25,18.364 41.606,18.506 C44.275,19.58 46,22.128 46,25 C46,26.453 45.542,27.82 44.712,29 L41.76,29 L41.76,28.5 C41.76,27.562 41.397,26.683 40.738,26.023 C40.078,25.363 39.198,25 38.26,25 C36.33,25 34.76,26.57 34.76,28.5 L34.76,29 L32,29 L32,26.31 C32,25.758 31.552,25.31 31,25.31 L29.5,25.31 C29.103,25.31 28.715,25.15 28.437,24.873 C28.155,24.591 28,24.214 28,23.81 C28,22.983 28.673,22.31 29.5,22.31 L31,22.31 C31.552,22.31 32,21.862 32,21.31 L32,15.019 C32.944,13.754 34.415,13 36,13 Z M20.394,18.507 C20.749,18.364 20.992,18.031 21.019,17.649 C21.2,15.042 23.389,13 26,13 C27.585,13 29.056,13.754 30,15.019 L30,20.31 L29.5,20.31 C27.57,20.31 26,21.88 26,23.81 C26,24.748 26.363,25.627 27.023,26.288 C27.683,26.947 28.563,27.31 29.5,27.31 L30,27.31 L30,29 L25.76,29 C25.208,29 24.76,29.448 24.76,30 L24.76,31.5 C24.76,31.904 24.605,32.281 24.322,32.563 C24.041,32.845 23.664,33 23.26,33 C22.433,33 21.76,32.327 21.76,31.5 L21.76,30 C21.76,29.448 21.312,29 20.76,29 L17.288,29 C16.458,27.82 16,26.453 16,25 C16,22.128 17.725,19.58 20.394,18.507 Z M17.288,31 L19.76,31 L19.76,31.5 C19.76,33.43 21.33,35 23.26,35 C24.198,35 25.078,34.637 25.737,33.977 C26.397,33.317 26.76,32.438 26.76,31.5 L26.76,31 L30,31 L30,35.31 C30,35.862 30.448,36.31 31,36.31 L32.5,36.31 C33.327,36.31 34,36.983 34,37.81 C34,38.214 33.845,38.591 33.563,38.872 C33.285,39.15 32.897,39.31 32.5,39.31 L31,39.31 C30.448,39.31 30,39.758 30,40.31 L30,44.966 C29.133,45.624 28.089,46 27,46 C24.809,46 22.893,44.597 22.232,42.508 C22.124,42.167 21.842,41.909 21.493,41.833 C18.31,41.134 16,38.26 16,35 C16,33.547 16.458,32.18 17.288,31 Z" id="Shape"></path>
            <path d="M59.651,1.769 C58.159,0.442 56.154,-0.183 54.157,0.05 C51.11,0.408 48.557,2.862 48.087,5.885 C47.778,7.869 48.291,9.814 49.53,11.363 C50.491,12.564 51,13.896 51,15.216 L51,16 C51,16.552 51.448,17 52,17 L58,17 C58.552,17 59,16.552 59,16 L59,15.21 C59,13.832 59.463,12.536 60.304,11.563 C61.397,10.294 62,8.674 62,7 C62,5.003 61.144,3.096 59.651,1.769 Z M58.79,10.256 C57.68,11.542 57.049,13.22 57.003,15 L56,15 L56,11 C56,10.803 55.941,10.609 55.832,10.445 L54.869,9 L57,9 L57,7 L53,7 C52.631,7 52.292,7.203 52.118,7.528 C51.944,7.853 51.963,8.248 52.168,8.554 L54,11.303 L54,15 L52.997,15 C52.946,13.294 52.29,11.609 51.092,10.113 C50.207,9.008 49.842,7.615 50.064,6.193 C50.398,4.039 52.218,2.291 54.391,2.036 C55.839,1.865 57.241,2.301 58.322,3.263 C59.388,4.211 60,5.574 60,7 C60,8.195 59.57,9.351 58.79,10.256 Z" id="Shape"></path>
            <rect id="Rectangle" x="53" y="18" width="4" height="2"></rect>
            <rect id="Rectangle" x="54" y="21" width="2" height="2"></rect>
            <path d="M45.47,53.152 C45.178,53.334 45,53.655 45,54 C45,54.345 45.178,54.666 45.47,54.848 L47.995,56.426 C49.662,57.468 51.572,57.989 53.482,57.9880014 C55.392,57.9880014 57.303,57.467 58.969,56.426 L61.494,54.848 C61.786,54.665 61.964,54.345 61.964,54 C61.964,53.655 61.786,53.334 61.494,53.152 L58.969,51.574 C55.635,49.491 51.328,49.491 47.995,51.574 L45.47,53.152 Z M53.482,53.129 C53.962,53.129 54.353,53.52 54.353,54 C54.353,54.48 53.962,54.871 53.482,54.871 C53.002,54.871 52.612,54.48 52.612,54 C52.612,53.52 53.002,53.129 53.482,53.129 Z M59.078,54 L57.91,54.73 C57.252,55.141 56.546,55.449 55.817,55.659 C56.152,55.19 56.353,54.619 56.353,54 C56.353,53.381 56.151,52.81 55.817,52.341 C56.546,52.551 57.252,52.859 57.91,53.27 L59.078,54 Z M49.056,53.27 C49.714,52.859 50.42,52.551 51.149,52.341 C50.814,52.81 50.613,53.381 50.613,54 C50.613,54.619 50.815,55.19 51.149,55.659 C50.42,55.449 49.714,55.141 49.056,54.73 L47.887,54 L49.056,53.27 L49.056,53.27 Z" id="Shape"></path>
            <path d="M3,10 L4.638,10 L10.36,14.768 C10.544,14.922 10.771,15 11,15 C11.176,15 11.353,14.954 11.511,14.859 C11.875,14.642 12.064,14.219 11.98,13.803 L11.22,10 L13,10 C14.654,10 16,8.654 16,7 L16,3 C16,1.346 14.654,0 13,0 L3,0 C1.346,0 0,1.346 0,3 L0,7 C0,8.654 1.346,10 3,10 Z M2,3 C2,2.449 2.449,2 3,2 L13,2 C13.551,2 14,2.449 14,3 L14,7 C14,7.551 13.551,8 13,8 L10,8 C9.7,8 9.417,8.134 9.227,8.366 C9.037,8.597 8.961,8.902 9.02,9.196 L9.464,11.418 L5.64,8.232 C5.46,8.082 5.234,8 5,8 L3,8 C2.449,8 2,7.551 2,7 L2,3 Z" id="Shape"></path>
            <rect id="Rectangle" x="4" y="4" width="2" height="2"></rect>
            <rect id="Rectangle" x="8" y="4" width="4" height="2"></rect>
            <path d="M7.793,60.427 C7.98,60.614 8.235,60.72 8.5,60.72 C8.765,60.72 9.02,60.615 9.207,60.427 L14.833,54.801 C15.585,54.048 16,53.048 16,51.984 C16,50.92 15.585,49.919 14.833,49.167 C13.328,47.661 10.704,47.662 9.2,49.167 L8.5,49.866 L7.8,49.167 C6.297,47.662 3.671,47.662 2.167,49.167 C1.415,49.919 1,50.919 1,51.984 C1,53.048 1.415,54.048 2.167,54.8 L7.793,60.427 Z M3.581,50.581 C3.956,50.206 4.454,50 4.983,50 C5.513,50 6.011,50.206 6.386,50.581 L7.793,51.987 C8.184,52.378 8.816,52.378 9.207,51.987 L10.614,50.581 C11.364,49.832 12.669,49.831 13.419,50.581 C13.794,50.956 14,51.454 14,51.984 C14,52.513 13.794,53.011 13.419,53.386 L8.5,58.306 L3.581,53.387 C3.206,53.011 3,52.513 3,51.984 C3,51.454 3.206,50.956 3.581,50.581 Z" id="Shape"></path>
            <rect id="Rectangle" x="44" y="3" width="2" height="2"></rect>
            <rect id="Rectangle" x="40" y="3" width="2" height="2"></rect>
            <rect id="Rectangle" x="36" y="3" width="2" height="2"></rect>
            <rect id="Rectangle" x="36" y="7" width="2" height="2"></rect>
            <rect id="Rectangle" x="19" y="3" width="2" height="2"></rect>
            <rect id="Rectangle" x="23" y="3" width="2" height="2"></rect>
            <rect id="Rectangle" x="27" y="3" width="2" height="2"></rect>
            <rect id="Rectangle" x="27" y="7" width="2" height="2"></rect>
            <rect id="Rectangle" x="27" y="50" width="2" height="2"></rect>
            <rect id="Rectangle" x="27" y="54" width="2" height="2"></rect>
            <rect id="Rectangle" x="27" y="58" width="2" height="2"></rect>
            <rect id="Rectangle" x="23" y="58" width="2" height="2"></rect>
            <rect id="Rectangle" x="19" y="58" width="2" height="2"></rect>
            <rect id="Rectangle" x="35" y="50" width="2" height="2"></rect>
            <rect id="Rectangle" x="35" y="54" width="2" height="2"></rect>
            <rect id="Rectangle" x="35" y="58" width="2" height="2"></rect>
            <rect id="Rectangle" x="39" y="58" width="2" height="2"></rect>
            <rect id="Rectangle" x="43" y="58" width="2" height="2"></rect>
        </g>
    </g>
</svg>