<?xml version="1.0" encoding="UTF-8"?>
<svg width="182px" height="142px" viewBox="0 0 182 142" version="1.1" xmlns="http://www.w3.org/2000/svg" xmlns:xlink="http://www.w3.org/1999/xlink">
    <!-- Generator: Sketch 55.2 (78181) - https://sketchapp.com -->
    <title>noun_partnership_365832</title>
    <desc>Created with Sketch.</desc>
    <g id="Page-1" stroke="none" stroke-width="1" fill="none" fill-rule="evenodd">
        <g id="noun_partnership_365832" fill="#000000" fill-rule="nonzero">
            <g id="Group">
                <path d="M155.739746,72.790265 L182,46.55896 L135.622348,0.24282 L109.362094,26.474125 L111.689348,28.80115 L87.9369258,37.953405 L69.0302539,30.345755 L72.6432383,26.737535 L46.3772969,0.50623 L0,46.822725 L26.2659414,73.05403 L29.7150547,69.609465 L42.5176172,89.866475 C41.7345195,91.458295 41.3150664,93.22229 41.3150664,95.041665 C41.3150664,98.181285 42.5396563,101.132045 44.7588477,103.34547 C46.8667773,105.44778 49.6326797,106.65691 52.5958672,106.768025 C52.7096172,109.61903 53.8510273,112.426015 56.0200977,114.58903 C58.1280273,116.69702 60.8910859,117.90047 63.8514297,118.01691 C63.9680234,120.97335 65.1762617,123.735605 67.2809922,125.837915 C69.3889219,127.940225 72.1519805,129.143675 75.1123242,129.265795 C75.228918,132.216555 76.4371563,134.979165 78.5418867,137.0868 C80.7635664,139.30555 83.7157344,140.52604 86.8538125,140.52604 L86.8538125,140.52604 C87.1648477,140.52604 87.4758828,140.50403 87.7812305,140.481665 C89.4142539,141.313785 91.2303438,141.757535 93.1189492,141.757535 L93.1189492,141.757535 C96.2570273,141.757535 99.2091953,140.537045 101.430875,138.318295 C103.597102,136.154925 104.741,133.348295 104.852262,130.502615 C107.818293,130.386175 110.584195,129.177045 112.689281,127.074735 C114.794367,124.978105 116.005094,122.215495 116.121688,119.259055 C119.076344,119.142615 121.836914,117.93881 123.947688,115.8365 C126.047086,113.73419 127.257813,110.971935 127.374762,108.02082 C130.335105,107.90438 133.089988,106.700575 135.200762,104.59294 C138.949891,100.848755 139.627414,95.18544 137.233688,90.736935 L153.013301,70.06919 L155.739746,72.790265 Z M10.7223594,46.822725 L46.3776523,11.21445 L61.9237227,26.737535 L26.2659414,62.348295 L10.7223594,46.822725 Z M48.8965039,95.041665 C48.8965039,93.93229 49.3326641,92.883975 50.1210938,92.10191 L54.0451133,88.1749 C54.8338984,87.387155 55.8807539,86.95441 56.9972813,86.95441 C58.1109648,86.95441 59.1578203,87.387155 59.9466055,88.1749 C61.5739414,89.80009 61.5739414,92.445905 59.9466055,94.06577 L56.0197422,97.99278 C55.230957,98.780525 54.1841016,99.21327 53.070418,99.21327 C51.9538906,99.21327 50.9070352,98.780525 50.11825,97.99278 C49.3323086,97.20468 48.8965039,96.156365 48.8965039,95.041665 Z M68.2581758,98.203295 C69.3718594,98.203295 70.4187148,98.63604 71.2075,99.423785 C71.9962852,100.21153 72.4296016,101.254165 72.4296016,102.36922 C72.4296016,103.484275 71.9962852,104.52691 71.2075,105.314655 L67.2806367,109.241665 C66.4946953,110.02373 65.4449961,110.462155 64.3313125,110.462155 C63.2147852,110.462155 62.1679297,110.024085 61.3791445,109.241665 C59.7546523,107.610795 59.7546523,104.97066 61.3819883,103.34547 L65.3060078,99.423785 C66.0951484,98.63604 67.1448477,98.203295 68.2581758,98.203295 Z M79.5194258,109.45218 C80.6331094,109.45218 81.6828086,109.884925 82.46875,110.67267 C84.0960859,112.29218 84.0960859,114.93835 82.4715938,116.56354 L78.5447305,120.485225 C77.7559453,121.27297 76.7062461,121.705715 75.5925625,121.705715 C74.4788789,121.705715 73.4291797,121.267645 72.6403945,120.485225 C71.8544531,119.69748 71.418293,118.649165 71.418293,117.53979 C71.418293,116.424735 71.8544531,115.37642 72.6428828,114.58903 L76.5669023,110.673025 C77.356043,109.884925 78.4057422,109.45218 79.5194258,109.45218 Z M90.7806758,120.69574 C91.8943594,120.69574 92.9440586,121.128485 93.73,121.91623 C94.5187852,122.703975 94.9545898,123.75229 94.9545898,124.861665 C94.9545898,125.97672 94.5184297,127.025035 93.73,127.812425 L89.8059805,131.72843 C89.0171953,132.516175 87.9703398,132.94892 86.8538125,132.94892 C85.7401289,132.94892 84.6904297,132.516175 83.9044883,131.72843 C83.1157031,130.940685 82.6798984,129.89805 82.6798984,128.782995 C82.6798984,127.66794 83.1160586,126.625305 83.9044883,125.83756 L87.8313516,121.915875 C88.6201367,121.128485 89.6669922,120.69574 90.7806758,120.69574 Z M129.834961,99.24593 C129.051863,100.027995 128.002164,100.46074 126.891324,100.46074 C125.81923,100.46074 124.802945,100.055685 124.025535,99.323675 L113.678195,88.995305 L113.678195,88.995305 C112.19518,87.514245 109.795766,87.514245 108.318438,88.995305 C106.841109,90.470685 106.841109,92.866935 108.318438,94.342315 L108.318438,94.342315 L118.671465,104.68169 C120.204246,106.3012 120.1655,108.902995 118.582598,110.48381 C117.793813,111.271555 116.749801,111.7043 115.638961,111.7043 C114.566867,111.7043 113.550582,111.29392 112.773172,110.561555 L102.425832,100.233185 L102.425832,100.233185 C100.942816,98.752125 98.5434023,98.752125 97.0660742,100.233185 C95.5859023,101.708565 95.5859023,104.104815 97.0660742,105.580195 L107.413414,115.91957 C108.951883,117.53908 108.913137,120.140875 107.330234,121.72169 C106.541449,122.509435 105.497438,122.94218 104.38091,122.94218 C103.619852,122.94218 102.897895,122.73699 102.264805,122.365305 C101.79843,120.179925 100.709629,118.17737 99.0933125,116.563185 C96.9882266,114.455195 94.2166367,113.251745 91.256293,113.135305 C91.1396992,110.295305 90.0011328,107.482995 87.8292188,105.3143 C85.7241328,103.21199 82.9582305,102.00854 80.0007305,101.88642 C79.881293,98.93566 78.6758984,96.17305 76.571168,94.065415 C74.4632383,91.968785 71.6944922,90.759655 68.7341484,90.64286 C68.6175547,87.79718 67.4789883,84.99055 65.3070742,82.821855 C63.0882383,80.608785 60.1360703,79.388295 56.9979922,79.388295 C53.8570703,79.388295 50.9077461,80.608785 48.6860664,82.821855 L47.6722695,83.8368 L35.2113125,64.120455 L39.2241992,60.11286 L63.2073203,36.164205 L79.8837813,42.875835 L68.8141289,53.93089 C64.2150742,58.52388 64.2150742,65.99521 68.8141289,70.58536 C71.0414961,72.80979 74.0018398,74.035605 77.1509375,74.035605 C80.2751523,74.035605 83.213457,72.829315 85.4351367,70.638255 L91.2033281,65.288405 L97.0323047,63.79634 L102.652977,67.210375 L104.957836,68.608365 L129.046531,92.5627 L129.835316,93.350445 C131.467984,94.974925 131.467984,97.615415 129.834961,99.24593 Z M132.123469,84.94085 L109.662109,62.606025 L98.2426758,55.66968 L87.456332,58.429095 L80.2275195,65.1354 L80.1276328,65.232315 C79.3335156,66.025385 78.2752852,66.46381 77.150582,66.46381 C76.0258789,66.46381 74.9676484,66.02574 74.1735313,65.232315 C72.532332,63.59328 72.532332,60.9251 74.1735313,59.283225 L87.0759805,46.39779 L117.54925,34.65794 L147.603066,64.666445 L132.123469,84.94085 Z M135.622348,10.95104 L171.280129,46.559315 L155.739391,62.084885 L120.081609,26.47377 L135.622348,10.95104 Z" id="Shape"></path>
                <path d="M25.0132695,47.759925 C23.5330977,49.238145 23.5330977,51.634395 25.0132695,53.112615 C26.4934414,54.590835 28.8956992,54.590835 30.3758711,53.112615 C31.856043,51.634395 31.856043,49.238145 30.3758711,47.759925 C28.8956992,46.281705 26.4934414,46.281705 25.0132695,47.759925 Z" id="Path"></path>
            </g>
        </g>
    </g>
</svg>